<mxfile host="65bd71144e">
    <diagram name="Research Framework" id="legislative_growth_framework">
        <mxGraphModel dx="592" dy="694" grid="1" gridSize="10" guides="1" tooltips="1" connect="1" arrows="1" fold="1" page="1" pageScale="1" pageWidth="900" pageHeight="800" math="0" shadow="0">
            <root>
                <mxCell id="0"/>
                <mxCell id="1" parent="0"/>
                <mxCell id="title" value="Research Framework: Legislative Output and Economic Growth" style="rounded=1;whiteSpace=wrap;html=1;fillColor=#2c3e50;fontColor=#ffffff;fontSize=18;fontStyle=1" parent="1" vertex="1">
                    <mxGeometry x="40" y="40" width="820" height="50" as="geometry"/>
                </mxCell>
                <mxCell id="phase1_container" value="" style="rounded=1;whiteSpace=wrap;html=1;fillColor=#e3f2fd;strokeColor=#1976d2;strokeWidth=2;dashed=1" parent="1" vertex="1">
                    <mxGeometry x="46" y="120" width="380" height="200" as="geometry"/>
                </mxCell>
                <mxCell id="phase1_title" value="PHASE 1: Data Collection &amp; Measurement" style="rounded=1;whiteSpace=wrap;html=1;fillColor=#1976d2;fontColor=#ffffff;fontSize=14;fontStyle=1" parent="1" vertex="1">
                    <mxGeometry x="56" y="130" width="360" height="30" as="geometry"/>
                </mxCell>
                <mxCell id="comp_ling" value="&lt;span style=&quot;color: rgb(0, 0, 0);&quot;&gt;Sample:States of US&lt;/span&gt;" style="rounded=1;whiteSpace=wrap;html=1;fillColor=#ffffff;strokeColor=#1976d2;fontSize=11;fontStyle=1" parent="1" vertex="1">
                    <mxGeometry x="66" y="170" width="160" height="35" as="geometry"/>
                </mxCell>
                <mxCell id="extract_prov" value="Time:1965-2012" style="rounded=1;whiteSpace=wrap;html=1;fillColor=#ffffff;strokeColor=#1976d2;fontSize=11;fontStyle=1" parent="1" vertex="1">
                    <mxGeometry x="246" y="170" width="160" height="35" as="geometry"/>
                </mxCell>
                <mxCell id="topic_model" value="State Law" style="rounded=1;whiteSpace=wrap;html=1;fillColor=#ffffff;strokeColor=#1976d2;fontSize=11;fontStyle=1" parent="1" vertex="1">
                    <mxGeometry x="66" y="220" width="160" height="35" as="geometry"/>
                </mxCell>
                <mxCell id="legal_cat" value="Economic Growth" style="rounded=1;whiteSpace=wrap;html=1;fillColor=#ffffff;strokeColor=#1976d2;fontSize=11;fontStyle=1" parent="1" vertex="1">
                    <mxGeometry x="246" y="220" width="160" height="35" as="geometry"/>
                </mxCell>
                <mxCell id="leg_output" value="Legislative Output Measure" style="rounded=1;whiteSpace=wrap;html=1;fillColor=#bbdefb;strokeColor=#1976d2;fontSize=11;fontStyle=1" parent="1" vertex="1">
                    <mxGeometry x="156" y="270" width="160" height="35" as="geometry"/>
                </mxCell>
                <mxCell id="phase2_container" value="" style="rounded=1;whiteSpace=wrap;html=1;fillColor=#fff3e0;strokeColor=#f57c00;strokeWidth=2;dashed=1" parent="1" vertex="1">
                    <mxGeometry x="479" y="120" width="380" height="200" as="geometry"/>
                </mxCell>
                <mxCell id="phase2_title" value="PHASE 2: Identification Strategy" style="rounded=1;whiteSpace=wrap;html=1;fillColor=#f57c00;fontColor=#ffffff;fontSize=14;fontStyle=1" parent="1" vertex="1">
                    <mxGeometry x="489" y="130" width="360" height="30" as="geometry"/>
                </mxCell>
                <mxCell id="text_shift" value="Sentence Analyse" style="rounded=1;whiteSpace=wrap;html=1;fillColor=#ffffff;strokeColor=#f57c00;fontSize=10;fontStyle=1" parent="1" vertex="1">
                    <mxGeometry x="499" y="170" width="160" height="35" as="geometry"/>
                </mxCell>
                <mxCell id="topic_flows" value="LDA Topic Analyse" style="rounded=1;whiteSpace=wrap;html=1;fillColor=#ffffff;strokeColor=#f57c00;fontSize=10;fontStyle=1" parent="1" vertex="1">
                    <mxGeometry x="679" y="170" width="160" height="35" as="geometry"/>
                </mxCell>
                <mxCell id="state_diff" value="Word Bag of&amp;nbsp;Contingency" style="rounded=1;whiteSpace=wrap;html=1;fillColor=#ffffff;strokeColor=#f57c00;fontSize=11;fontStyle=1" parent="1" vertex="1">
                    <mxGeometry x="499" y="220" width="160" height="35" as="geometry"/>
                </mxCell>
                <mxCell id="exog_assume" value="Syntactic Parser" style="rounded=1;whiteSpace=wrap;html=1;fillColor=#ffffff;strokeColor=#f57c00;fontSize=11;fontStyle=1" parent="1" vertex="1">
                    <mxGeometry x="679" y="220" width="160" height="35" as="geometry"/>
                </mxCell>
                <mxCell id="causal_inst" value="Independent Variable" style="rounded=1;whiteSpace=wrap;html=1;fillColor=#ffe0b2;strokeColor=#f57c00;fontSize=11;fontStyle=1" parent="1" vertex="1">
                    <mxGeometry x="589" y="270" width="160" height="35" as="geometry"/>
                </mxCell>
                <mxCell id="phase3_container" value="" style="rounded=1;whiteSpace=wrap;html=1;fillColor=#e8f5e8;strokeColor=#388e3c;strokeWidth=2;dashed=1" parent="1" vertex="1">
                    <mxGeometry x="46" y="350" width="380" height="180" as="geometry"/>
                </mxCell>
                <mxCell id="phase3_title" value="PHASE 3: Empirical Analysis" style="rounded=1;whiteSpace=wrap;html=1;fillColor=#388e3c;fontColor=#ffffff;fontSize=14;fontStyle=1" parent="1" vertex="1">
                    <mxGeometry x="56" y="360" width="360" height="30" as="geometry"/>
                </mxCell>
                <mxCell id="main_finding" value="MAIN FINDING&lt;br&gt;More Laws → Higher Growth&lt;br&gt;+10% legislation = +0.15pp GDP growth" style="rounded=1;whiteSpace=wrap;html=1;fillColor=#c8e6c9;strokeColor=#388e3c;strokeWidth=2;fontSize=12;fontStyle=1" parent="1" vertex="1">
                    <mxGeometry x="66" y="400" width="320" height="55" as="geometry"/>
                </mxCell>
                <mxCell id="alt_specs" value="Alternative Processing &amp; Specs" style="rounded=1;whiteSpace=wrap;html=1;fillColor=#ffffff;strokeColor=#388e3c;fontSize=9" parent="1" vertex="1">
                    <mxGeometry x="66" y="470" width="160" height="25" as="geometry"/>
                </mxCell>
                <mxCell id="exclude_channels" value="Exclude Other Channels" style="rounded=1;whiteSpace=wrap;html=1;fillColor=#ffffff;strokeColor=#388e3c;fontSize=9" parent="1" vertex="1">
                    <mxGeometry x="236" y="470" width="150" height="25" as="geometry"/>
                </mxCell>
                <mxCell id="phase4_container" value="" style="rounded=1;whiteSpace=wrap;html=1;fillColor=#f3e5f5;strokeColor=#7b1fa2;strokeWidth=2;dashed=1" parent="1" vertex="1">
                    <mxGeometry x="479" y="350" width="380" height="180" as="geometry"/>
                </mxCell>
                <mxCell id="phase4_title" value="PHASE 4: Mechanism Analysis" style="rounded=1;whiteSpace=wrap;html=1;fillColor=#7b1fa2;fontColor=#ffffff;fontSize=14;fontStyle=1" parent="1" vertex="1">
                    <mxGeometry x="489" y="360" width="360" height="30" as="geometry"/>
                </mxCell>
                <mxCell id="uncertainty_red" value="Uncertainty Reduction&lt;br&gt;→ Investment" style="rounded=1;whiteSpace=wrap;html=1;fillColor=#ffffff;strokeColor=#7b1fa2;fontSize=10;fontStyle=1" parent="1" vertex="1">
                    <mxGeometry x="589" y="400" width="160" height="35" as="geometry"/>
                </mxCell>
                <mxCell id="econ_social" value="Economic vs&lt;br&gt;Social Laws" style="rounded=1;whiteSpace=wrap;html=1;fillColor=#e1bee7;strokeColor=#7b1fa2;fontSize=8" parent="1" vertex="1">
                    <mxGeometry x="499" y="450" width="70" height="30" as="geometry"/>
                </mxCell>
                <mxCell id="contingent" value="Contingent&lt;br&gt;Provisions" style="rounded=1;whiteSpace=wrap;html=1;fillColor=#e1bee7;strokeColor=#7b1fa2;fontSize=8" parent="1" vertex="1">
                    <mxGeometry x="579" y="450" width="70" height="30" as="geometry"/>
                </mxCell>
                <mxCell id="decreasing" value="Decreasing&lt;br&gt;Returns" style="rounded=1;whiteSpace=wrap;html=1;fillColor=#e1bee7;strokeColor=#7b1fa2;fontSize=8" parent="1" vertex="1">
                    <mxGeometry x="659" y="450" width="70" height="30" as="geometry"/>
                </mxCell>
                <mxCell id="customized" value="Customized&lt;br&gt;Inputs" style="rounded=1;whiteSpace=wrap;html=1;fillColor=#e1bee7;strokeColor=#7b1fa2;fontSize=8" parent="1" vertex="1">
                    <mxGeometry x="739" y="450" width="70" height="30" as="geometry"/>
                </mxCell>
                <mxCell id="econ_uncert" value="Economic&lt;br&gt;Uncertainty" style="rounded=1;whiteSpace=wrap;html=1;fillColor=#e1bee7;strokeColor=#7b1fa2;fontSize=8" parent="1" vertex="1">
                    <mxGeometry x="619" y="490" width="80" height="30" as="geometry"/>
                </mxCell>
                <mxCell id="policy_impl" value="POLICY IMPLICATIONS&lt;br&gt;Comprehensive legislation can be growth-enhancing through reduced uncertainty" style="rounded=1;whiteSpace=wrap;html=1;fillColor=#e0f2f1;strokeColor=#00695c;strokeWidth=2;fontSize=12;fontStyle=1" parent="1" vertex="1">
                    <mxGeometry x="150" y="560" width="600" height="60" as="geometry"/>
                </mxCell>
                <mxCell id="arrow1" style="edgeStyle=orthogonalEdgeStyle;rounded=0;orthogonalLoop=1;jettySize=auto;html=1;entryX=0;entryY=0.5;entryDx=0;entryDy=0;" parent="1" source="phase1_container" target="phase2_container" edge="1">
                    <mxGeometry relative="1" as="geometry">
                        <mxPoint x="430" y="220" as="sourcePoint"/>
                        <mxPoint x="470" y="220" as="targetPoint"/>
                    </mxGeometry>
                </mxCell>
                <mxCell id="arrow2" style="edgeStyle=orthogonalEdgeStyle;rounded=0;orthogonalLoop=1;jettySize=auto;html=1;entryX=0.5;entryY=0;entryDx=0;entryDy=0;" parent="1" source="phase1_container" target="phase3_container" edge="1">
                    <mxGeometry relative="1" as="geometry">
                        <mxPoint x="236" y="320" as="sourcePoint"/>
                        <mxPoint x="236" y="350" as="targetPoint"/>
                    </mxGeometry>
                </mxCell>
                <mxCell id="arrow3" style="edgeStyle=orthogonalEdgeStyle;rounded=0;orthogonalLoop=1;jettySize=auto;html=1;entryX=1;entryY=0.5;entryDx=0;entryDy=0;" parent="1" source="phase4_container" target="phase3_container" edge="1">
                    <mxGeometry relative="1" as="geometry">
                        <mxPoint x="470" y="430" as="sourcePoint"/>
                        <mxPoint x="430" y="430" as="targetPoint"/>
                    </mxGeometry>
                </mxCell>
                <mxCell id="arrow4" style="edgeStyle=orthogonalEdgeStyle;rounded=0;orthogonalLoop=1;jettySize=auto;html=1;entryX=0.3;entryY=0;entryDx=0;entryDy=0;" parent="1" source="phase3_container" target="policy_impl" edge="1">
                    <mxGeometry relative="1" as="geometry">
                        <mxPoint x="240" y="530" as="sourcePoint"/>
                        <mxPoint x="330" y="560" as="targetPoint"/>
                    </mxGeometry>
                </mxCell>
                <mxCell id="label1" value="Source" style="text;html=1;strokeColor=none;fillColor=none;align=center;verticalAlign=middle;whiteSpace=wrap;rounded=0;fontSize=10;fontStyle=2" parent="1" vertex="1">
                    <mxGeometry x="420" y="200" width="60" height="20" as="geometry"/>
                </mxCell>
                <mxCell id="label2" value="Estimate" style="text;html=1;strokeColor=none;fillColor=none;align=center;verticalAlign=middle;whiteSpace=wrap;rounded=0;fontSize=10;fontStyle=2" parent="1" vertex="1">
                    <mxGeometry x="176" y="320" width="60" height="20" as="geometry"/>
                </mxCell>
                <mxCell id="label4" value="Support" style="text;html=1;strokeColor=none;fillColor=none;align=center;verticalAlign=middle;whiteSpace=wrap;rounded=0;fontSize=10;fontStyle=2" parent="1" vertex="1">
                    <mxGeometry x="420" y="417.5" width="60" height="20" as="geometry"/>
                </mxCell>
                <mxCell id="1h1QZcfuul9a-P1WkhsN-1" style="edgeStyle=orthogonalEdgeStyle;rounded=0;orthogonalLoop=1;jettySize=auto;html=1;entryX=0.7;entryY=0;entryDx=0;entryDy=0;entryPerimeter=0;" parent="1" source="phase4_container" target="policy_impl" edge="1">
                    <mxGeometry relative="1" as="geometry"/>
                </mxCell>
            </root>
        </mxGraphModel>
    </diagram>
</mxfile>